<svg xmlns="http://www.w3.org/2000/svg" xmlns:xlink="http://www.w3.org/1999/xlink" version="1.1" x="0px" y="0px" viewBox="0 0 96 96" enable-background="new 0 0 96 96" xml:space="preserve"><circle cx="48" cy="25.5" r="11.5"></circle><path d="M45.01,76.393c0.96,1.43,0.77,3.34-0.45,4.55c-1.4,1.41-3.68,1.41-5.09,0l-9.1-9.1c-1.37-1.37-1.15-3.368-0.1-4.99  C36,58,36,58,36,58l10,7l-6,5C40.01,70.01,45,76.383,45.01,76.393z"></path><path d="M50.99,76.393c-0.961,1.43-0.77,3.34,0.449,4.55c1.4,1.41,3.681,1.41,5.09,0l9.101-9.1c1.37-1.37,1.149-3.368,0.101-4.99  C60,58,60,58,60,58l-10,7l6,5C55.99,70.01,51,76.383,50.99,76.393z"></path><path d="M72.06,40.227h-0.02c-3.37,2.09-7.03,3.77-10.9,4.93c-1.27,0.38-2.14,1.55-2.14,2.87V56H37v-7.974  c0-1.32-0.87-2.49-2.14-2.87c-3.87-1.16-7.53-2.84-10.9-4.93h-0.02c-1.15-0.72-1.61-2.16-1.08-3.42c0.56-1.3,2-1.95,3.33-1.56  c0.09,0.04,0.19,0.07,0.28,0.11c0.02,0.01,0.04,0.02,0.05,0.03c6.6,2.8,13.86,4.35,21.48,4.35s14.88-1.55,21.48-4.35  c0.01-0.01,0.029-0.02,0.05-0.03c0.09-0.04,0.189-0.07,0.279-0.11c1.33-0.39,2.771,0.26,3.33,1.56  C73.67,38.066,73.21,39.506,72.06,40.227z"></path></svg>