<svg xmlns="http://www.w3.org/2000/svg" xmlns:xlink="http://www.w3.org/1999/xlink" version="1.1" x="0px" y="0px" viewBox="0 0 48 48" style="enable-background:new 0 0 48 48;" xml:space="preserve"><g><path d="M27.5,6.6C28,6,28.2,5.1,28.2,4.2C28.2,1.9,26.3,0,24,0s-4.2,1.9-4.2,4.2c0,0.9,0.3,1.7,0.7,2.4   C10.6,8.3,3.2,16.8,3.2,27.2C3.2,38.7,12.5,48,24,48c11.5,0,20.8-9.3,20.8-20.8C44.8,16.8,37.3,8.3,27.5,6.6z M24,44.5   c-9.6,0-17.4-7.8-17.4-17.4S14.4,9.8,24,9.8c9.6,0,17.4,7.8,17.4,17.4S33.6,44.5,24,44.5z"></path><circle cx="24" cy="13" r="1.6"></circle><circle cx="24" cy="41.3" r="1.6"></circle><circle cx="38.1" cy="27.2" r="1.6"></circle><circle cx="9.9" cy="27.2" r="1.6"></circle><path d="M26.7,24.8c-0.1-0.1-0.2-0.2-0.3-0.3L16.2,18c-0.9-0.6-1.9,0.5-1.4,1.4l6.5,10.2c0.1,0.1,0.2,0.2,0.3,0.3l10.2,6.5   c0.9,0.6,1.9-0.5,1.4-1.4L26.7,24.8z M24,29.1c-1.1,0-1.9-0.9-1.9-1.9c0-1.1,0.9-1.9,1.9-1.9s1.9,0.9,1.9,1.9   C25.9,28.2,25.1,29.1,24,29.1z"></path></g></svg>