<svg fill="#252993" xmlns="http://www.w3.org/2000/svg" xmlns:xlink="http://www.w3.org/1999/xlink" version="1.1" x="0px" y="0px" viewBox="0 0 66 66" enable-background="new 0 0 66 66" xml:space="preserve"><g><g><g><path d="M41.1,33.6l-10.8,2c-0.4,0.1-0.9-0.1-1.1-0.5c-0.2-0.4-0.1-0.9,0.2-1.2c1.7-1.6,2.2-7.5,2.1-11.5c-3.2,0-5.3-2.5-6.5-4.4     c-2.6,4.8-7,6.1-8.9,6.4c-1.1,6.7,2.4,9,2.5,9.1c0.9,0.6,0.4,2-0.7,1.8l-11-1.6c-0.9-0.1-1.2-1.4-0.3-1.9c0.2-0.1,4-2.4,3.6-8.5     c0-0.2-1.1-7.8,3.1-12.8c2.4-2.8,6-4.3,10.6-4.3c4.7,0,8.2,1.5,10.6,4.3c4.3,5,3.2,12.5,3.1,12.9c-0.4,6,3.4,8.3,3.6,8.4     C42.3,32.2,42.1,33.4,41.1,33.6z"></path></g></g><g><path d="M46.1,47.2c-0.1-1.1-0.5-2.1-1-2.9c-3.2-5.2-12.9-6.8-13.3-6.9c-0.4-0.1-0.9,0.1-1.1,0.5c-2.9,5.8-10.3,5.8-13.3,0    c-0.2-0.4-0.6-0.6-1.1-0.5c-0.4,0.1-10,1.7-13.3,6.9c-0.5,0.8-0.8,1.8-1,2.9c-1,7-2,15.7-1.5,17.2C0.8,64.8,1.2,65,1.6,65h45    c0.4,0,0.8-0.3,1-0.7C48.1,62.8,47,54.2,46.1,47.2z M24.1,60.7c-1,0-1.8-0.8-1.8-1.8c0-1,0.8-1.8,1.8-1.8c1,0,1.8,0.8,1.8,1.8    C25.9,59.9,25.1,60.7,24.1,60.7z M24.1,55.3c-1,0-1.8-0.8-1.8-1.8c0-1,0.8-1.8,1.8-1.8c1,0,1.8,0.8,1.8,1.8    C25.9,54.5,25.1,55.3,24.1,55.3z M24.1,49.9c-1,0-1.8-0.8-1.8-1.8c0-1,0.8-1.8,1.8-1.8c1,0,1.8,0.8,1.8,1.8    C25.9,49.1,25.1,49.9,24.1,49.9z"></path></g><g><path d="M52.7,1c-7.1,0-12.8,5.7-12.8,12.8c0,2.3,0.6,4.6,1.8,6.6l-0.8,5.5c0,0.3,0.1,0.6,0.3,0.9c0.2,0.2,0.5,0.3,0.7,0.3    c0,0,0.1,0,0.1,0l7.2-0.9c1.1,0.3,2.3,0.5,3.5,0.5c7,0,12.8-5.8,12.8-12.8S59.7,1,52.7,1z M59.8,12.9c-0.1,0-0.2,0-0.3,0L56.9,16    c0.1,0.2,0.1,0.5,0.1,0.7c0,1.1-0.9,2-2,2c-1.1,0-2-0.9-2-2c0-0.3,0.1-0.5,0.1-0.8L51,13.4c-0.1,0-0.3,0.1-0.5,0.1    c-0.3,0-0.5-0.1-0.7-0.1l-2.3,2c0,0.1,0,0.3,0,0.4c0,1.1-0.9,2-2,2c-1.1,0-2-0.9-2-2c0-1.1,0.9-2,2-2c0.2,0,0.5,0,0.7,0.1l2.3-2    c0-0.1,0-0.2,0-0.3c0-1.1,0.9-2,2-2c1.1,0,2,0.9,2,2c0,0.2,0,0.4-0.1,0.6l2.2,2.7c0.1,0,0.2,0,0.3,0c0.1,0,0.2,0,0.3,0l2.5-3.1    c-0.1-0.2-0.1-0.5-0.1-0.7c0-1.1,0.9-2,2-2c1.1,0,2,0.9,2,2C61.8,12,60.9,12.9,59.8,12.9z"></path></g></g></svg>