<svg xmlns="http://www.w3.org/2000/svg" xmlns:xlink="http://www.w3.org/1999/xlink" version="1.1" x="0px" y="0px" viewBox="0 0 100 100" enable-background="new 0 0 100 100" xml:space="preserve"><path d="M90,11H10c-2.206,0-4,1.794-4,4v74h88V15C94,12.794,92.206,11,90,11z M26.25,17.5c0.69,0,1.25,0.56,1.25,1.25  S26.94,20,26.25,20S25,19.44,25,18.75S25.56,17.5,26.25,17.5z M21.25,17.5c0.69,0,1.25,0.56,1.25,1.25S21.94,20,21.25,20  S20,19.44,20,18.75S20.56,17.5,21.25,17.5z M16.25,17.5c0.69,0,1.25,0.56,1.25,1.25S16.94,20,16.25,20S15,19.44,15,18.75  S15.56,17.5,16.25,17.5z M39,77.5c0,2.206-1.794,4-4,4H17.5c-2.206,0-4-1.794-4-4V35c0-2.206,1.794-4,4-4H35c2.206,0,4,1.794,4,4  V77.5z M86.5,77.5c0,2.206-1.794,4-4,4h-35c-2.206,0-4-1.794-4-4V70c0-2.206,1.794-4,4-4h35c2.206,0,4,1.794,4,4V77.5z M86.5,60  c0,2.206-1.794,4-4,4h-35c-2.206,0-4-1.794-4-4v-7.5c0-2.206,1.794-4,4-4h35c2.206,0,4,1.794,4,4V60z M86.5,42.5  c0,2.206-1.794,4-4,4h-35c-2.206,0-4-1.794-4-4V35c0-2.206,1.794-4,4-4h35c2.206,0,4,1.794,4,4V42.5z M85,26.5H15  c-0.829,0-1.5-0.671-1.5-1.5s0.671-1.5,1.5-1.5h70c0.828,0,1.5,0.671,1.5,1.5S85.828,26.5,85,26.5z"></path></svg>