<?xml version="1.0" encoding="utf-8"?>
<!-- Generator: Adobe Illustrator 22.1.0, SVG Export Plug-In . SVG Version: 6.00 Build 0)  -->
<svg version="1.1" id="Layer_1" xmlns="http://www.w3.org/2000/svg" xmlns:xlink="http://www.w3.org/1999/xlink" x="0px" y="0px"
	 viewBox="0 0 1024 1024" style="enable-background:new 0 0 1024 1024;" xml:space="preserve">
<style type="text/css">
	.st0{fill:#ABD3EB;}
</style>
<path class="st0" d="M356.8,512.9C356.8,513,356.8,513,356.8,512.9c-0.7,0.7-1.4,1.4-2.1,2c-0.1,0.1-0.2,0.2-0.3,0.3
	c-0.4,0.4-0.8,0.8-1.2,1.2c-2,2-4.1,3.9-6.1,5.9c-25.7,24.9-51.4,49.7-77.2,74.6c-31,29.9-62,59.9-93,89.8
	c-4.9,4.8-9.9,9.5-14.8,14.3c-14.8,14.3-29.6,28.7-44.4,43c-6.6,6.4-13.2,12.8-19.8,19.1l0,0c0,0,0.1,0,0.1,0.1l0,0l0,0h-0.1l0,0
	c0,0,0,0-0.1,0l0,0l0,0h-0.1l-0.2,0.1c0,0,0,0-0.1,0l0,0l0,0l0,0l-0.1,0.1l0,0l0,0l-0.1,0.2l0,0l0,0l0,0l0,0c0,0-0.1,0-0.1,0.1
	c0,0-0.1,0-0.1,0.1l0,0l0,0c-0.1,0.1-0.2,0.2-0.4,0.3c0,0.1-0.1,0.1-0.2,0.1c-3.4,3.3-6.8,6.6-10.3,9.8l0,0
	c-1.2,1.1-2.4,2.3-3.5,3.4c-0.7,0.7-1.5,1.4-2.2,2.1c-0.4,0.3-0.7,0.7-1,1l-0.1,0.1c-0.4,0.4-0.7,0.8-1.1,1.2c-2,1.9-4,3.8-6.1,5.8
	c-3.5,3.3-6.9,6.6-10.1,9.9c-0.1,0.1-0.2,0.2-0.3,0.3c-1.2,1.3-2.4,2.5-3.5,3.8V222.2c0.9,1,1.8,1.9,2.8,2.9c0,0,0,0,0.1,0.1
	l0.1,0.1c0,0,0,0,0,0.1c0.2,0.2,0.3,0.3,0.5,0.5c0.4,0.4,0.8,0.8,1.2,1.2s0.8,0.8,1.2,1.2s0.8,0.8,1.2,1.2c2,2,4.1,3.9,6.2,5.9
	c2.2,2.1,4.4,4.2,6.5,6.3c0.4,0.4,0.8,0.8,1.2,1.2l0,0l0,0l0,0c5.1,5,10.2,10,15.3,15l0.1,0.1c1.1,1.1,2.2,2.2,3.3,3.3l0.1,0.1
	c0.5,0.5,1.1,1.1,1.6,1.6l0,0l0,0l0,0l0,0c0.3,0.3,0.6,0.6,0.9,0.9c16.8,16.4,33.7,32.8,50.5,49.2c5.3,5.2,10.6,10.3,15.9,15.5
	c11.5,11.2,23.1,22.5,34.6,33.7c38.1,37,76.1,74,114.2,111C329.5,486.4,343.1,499.7,356.8,512.9z"/>
<path class="st0" d="M923.6,180c-6.5,6.6-13,13.2-19.4,19.8L904,200c-5.2,5.3-10.4,10.5-15.5,15.8c-1.3,1.3-2.6,2.6-3.9,4
	c-0.1,0.1-0.1,0.1-0.2,0.2c-27.6,28.1-55.1,56.1-82.7,84.2c-34.1,34.7-68.2,69.4-102.2,104.1c-25.5,26-51,52-76.5,78l0,0
	c-2.3,1.3-4.5,3-6.3,5c-1.7,1.8-3.1,3.7-4.2,5.8l0,0c-7,7.2-14.1,14.3-21.1,21.5c-2,2-3.9,4-5.9,6c-0.4,0.4-0.7,0.8-1.1,1.1
	c-1,0.9-2,1.8-3,2.7c-2,1.7-4,3.4-6.1,5.1c-1.3,0.9-2.5,1.9-3.8,2.8c-6.8,4.7-14,8.9-21.6,12.4c-6.6,2.5-13.5,4.5-20.5,5.7l0,0
	c-6.4,0.6-12.8,0.6-19.2,0c-7.1-1.3-14-3.2-20.8-5.8c-1.2-0.5-2.4-1.1-3.5-1.7c-1.2-0.6-2.3-1.2-3.5-1.8c-2.3-1.2-4.6-2.5-6.8-3.9
	c-2.2-1.3-4.4-2.8-6.5-4.3c-0.8-0.5-1.5-1.1-2.3-1.6c-3.6-3-7.1-6.1-10.4-9.5c-3.5-3.5-7.1-6.9-10.7-10.4
	c-6.5-6.3-13-12.6-19.5-18.9c-0.2-0.3-0.4-0.6-0.6-1c-0.2-0.3-0.4-0.5-0.6-0.8c-0.2-0.2-0.3-0.4-0.5-0.7c-0.2-0.3-0.5-0.6-0.7-0.9
	s-0.4-0.5-0.7-0.7l0,0c-0.2-0.2-0.4-0.4-0.6-0.6s-0.4-0.4-0.6-0.6c-1.6-1.4-3.2-2.7-4.9-3.8l0,0c-15.8-15.4-31.5-30.7-47.3-46
	c-37.4-36.4-74.8-72.7-112.2-109.1c-34.8-33.9-69.7-67.8-104.5-101.6c-2.8-2.7-5.6-5.4-8.4-8c-0.5-0.5-0.9-0.9-1.4-1.4
	s-0.9-0.9-1.4-1.3l-0.4-0.2l0,0c-2-2.1-4.1-4.2-6.2-6.3l-0.1-0.2c-0.1-0.1-0.1-0.2-0.2-0.3c-2.2-2.2-4.4-4.3-6.6-6.5l-0.1-0.1
	c-0.2-0.2-0.4-0.4-0.6-0.6c-0.3-0.3-0.6-0.6-0.9-0.9c-0.5-0.5-1.1-1.1-1.6-1.6s-1.1-1.1-1.6-1.6c-0.6-0.5-1.1-1.1-1.7-1.6l0,0
	l-0.2-0.2c-0.9-0.8-1.7-1.7-2.6-2.5c-0.1-0.2-0.3-0.3-0.4-0.4c-0.1-0.1-0.2-0.2-0.3-0.3c-0.6-0.6-1.2-1.2-1.8-1.8
	c-2.1-2-4.1-4-6.2-6c-2.8-2.7-5.6-5.4-8.4-8l0,0c-0.3-0.3-0.5-0.5-0.8-0.8c4.2,0,8.4,0.1,12.6,0.1h809.9V180z"/>
<path class="st0" d="M966,222.5v579.1c-6.7-6.7-13.3-13.5-20-20.2c-3.1-3.1-6.2-6.2-9.3-9.4c-3.6-3.6-7.1-7.2-10.7-10.8
	c-21-21.2-42-42.5-63-63.7c-29.6-29.9-59.2-59.8-88.8-89.8c-25.8-26.1-51.6-52.1-77.4-78.2c-5.4-5.5-10.8-11-16.2-16.5
	c2.9-2.9,5.7-5.8,8.6-8.8c35.5-36.2,71.1-72.4,106.7-108.6c35.7-36.3,71.4-72.7,107.1-109.1c7.7-7.8,15.3-15.6,23-23.4
	c0.1-0.1,0.2-0.2,0.2-0.2c6.6-6.7,13.2-13.4,19.8-20.1c0.1-0.1,0.2-0.1,0.2-0.2c6.1-6.2,12.2-12.4,18.3-18.6
	C965,223.5,965.5,223,966,222.5z"/>
<path class="st0" d="M923.6,844H100.5c6.8-6.6,13.6-13.2,20.5-19.8c0.1-0.1,0.2-0.1,0.2-0.2c3.3-3.2,6.6-6.4,10-9.6
	c3.5-3.4,7-6.8,10.5-10.2c0.1-0.1,0.1-0.1,0.2-0.2c22.1-21.4,44.3-42.8,66.4-64.2c31-29.9,62-59.9,93-89.8
	c26.9-26,53.8-52,80.7-77.9c6-5.8,12-11.5,18-17.2c14.6,14.2,28.9,28.4,46.6,39c32,19.1,70.3,25.9,106.6,16.6
	c28.3-7.2,55.5-24.2,75.9-44.9c3.2-3.2,6.3-6.4,9.5-9.7c2.9,2.9,5.8,5.9,8.7,8.8c24.6,24.8,49.2,49.7,73.7,74.5
	c29.6,29.9,59.2,59.8,88.8,89.8c24.8,25,49.5,50,74.3,75c1,1.1,2.1,2.1,3.1,3.2c5.5,5.6,11,11.2,16.5,16.8
	C910.2,830.7,916.8,837.4,923.6,844z"/>
</svg>
