<svg xmlns="http://www.w3.org/2000/svg" xmlns:xlink="http://www.w3.org/1999/xlink" version="1.1" x="0px" y="0px" viewBox="0 0 91 91" enable-background="new 0 0 91 91" xml:space="preserve"><g><path d="M78.297,45.456C78.275,27.387,63.572,12.694,45.5,12.694c-18.086,0-32.799,14.715-32.799,32.801   c0,18.084,14.713,32.797,32.799,32.797c18.072,0,32.775-14.691,32.797-32.758c0-0.014,0.004-0.025,0.004-0.039   S78.297,45.47,78.297,45.456z M45.5,74.104c-0.541,0-1.078-0.018-1.613-0.047c-2.23-3.281-4.027-7.178-5.33-11.477   c2.141-0.223,4.322-0.346,6.535-0.346c2.121,0,4.213,0.105,6.266,0.311c-1.309,4.328-3.115,8.25-5.361,11.547   C45.83,74.095,45.666,74.104,45.5,74.104z M31.957,43.401H16.973c0.393-5.385,2.279-10.359,5.248-14.512   c3.459,1.41,7.184,2.48,11.092,3.193C32.545,35.719,32.08,39.524,31.957,43.401z M37.461,32.698   c2.496,0.285,5.043,0.449,7.631,0.449c2.496,0,4.953-0.146,7.361-0.412c0.732,3.412,1.182,7,1.303,10.666H36.146   C36.268,39.721,36.721,36.122,37.461,32.698z M31.959,47.589c0.123,3.959,0.594,7.832,1.385,11.518   c-3.877,0.705-7.574,1.762-11.01,3.152c-3.035-4.184-4.965-9.217-5.361-14.67H31.959z M36.145,47.589h17.611   c-0.123,3.75-0.582,7.402-1.338,10.865c-2.398-0.262-4.844-0.406-7.326-0.406c-2.574,0-5.111,0.162-7.598,0.445   C36.732,55.019,36.27,51.353,36.145,47.589z M55.553,63.128c3.525,0.605,6.891,1.516,10.023,2.727   c-3.863,3.811-8.801,6.535-14.313,7.668C53.018,70.392,54.463,66.892,55.553,63.128z M56.57,59.058   c0.783-3.67,1.25-7.525,1.373-11.469h16.082c-0.404,5.566-2.4,10.695-5.545,14.93C64.787,60.962,60.783,59.806,56.57,59.058z    M57.943,43.401c-0.121-3.861-0.58-7.65-1.342-11.271c4.242-0.756,8.273-1.93,11.988-3.506c3.08,4.205,5.035,9.277,5.436,14.777   H57.943z M65.729,25.28c-3.162,1.236-6.568,2.162-10.135,2.779c-1.096-3.836-2.547-7.416-4.322-10.594   C56.852,18.614,61.846,21.391,65.729,25.28z M46.004,16.893c2.271,3.34,4.094,7.344,5.406,11.752   c-2.068,0.207-4.18,0.314-6.318,0.314c-2.23,0-4.428-0.125-6.584-0.352c1.307-4.375,3.119-8.354,5.373-11.678   c0.537-0.031,1.076-0.049,1.619-0.049C45.67,16.881,45.836,16.891,46.004,16.893z M38.479,17.756   c-1.697,3.092-3.092,6.555-4.152,10.256c-3.25-0.578-6.367-1.406-9.279-2.498C28.672,21.801,33.293,19.069,38.479,17.756z    M25.191,65.624c2.883-1.068,5.965-1.881,9.174-2.449c1.055,3.631,2.441,7.016,4.115,10.057   C33.365,71.937,28.795,69.261,25.191,65.624z"></path><path d="M45.502,0.065c-25.055,0-45.436,20.383-45.436,45.438c0,9.314,2.789,18.24,8.07,25.854   c-0.141,1.748-1.465,7.645-2.725,12.561c-0.189,0.738,0.037,1.52,0.59,2.043s1.35,0.703,2.07,0.475   c2.527-0.803,9.678-2.883,12.371-2.883c0.102,0,0.178,0.002,0.232,0.006c7.385,4.828,15.963,7.377,24.826,7.377   c25.051,0,45.432-20.381,45.432-45.432C90.934,20.448,70.553,0.065,45.502,0.065z M45.502,86.747   c-8.123,0-15.98-2.357-22.725-6.816c-0.584-0.387-1.326-0.566-2.334-0.566c-2.438,0-6.902,1.121-10.078,2.018   c2.568-10.5,2.053-11.225,1.51-11.99c-4.986-7-7.621-15.262-7.621-23.889c0-22.747,18.504-41.25,41.248-41.25   c22.742,0,41.244,18.504,41.244,41.25C86.746,68.245,68.244,86.747,45.502,86.747z"></path></g></svg>