<svg xmlns="http://www.w3.org/2000/svg" viewBox="0 0 1000 1000" version="1.1" x="0px" y="0px"><g><path fill="#000000" opacity="1.00" d=" M 321.73 180.59 C 337.66 157.77 364.94 142.79 392.95 143.27 C 425.61 142.95 458.28 143.39 490.94 143.02 C 521.64 143.11 552.34 143.22 583.04 143.16 C 595.00 143.27 606.99 142.80 618.91 143.90 C 635.56 146.42 651.54 153.71 664.16 164.89 C 684.63 182.61 696.01 210.05 694.34 237.04 C 694.43 262.83 694.21 288.61 694.46 314.39 C 717.64 314.23 740.82 314.37 764.00 314.32 C 772.21 314.32 780.97 320.27 781.72 328.91 C 783.01 346.57 778.71 364.54 769.84 379.85 C 756.74 402.50 733.07 418.73 707.17 422.62 C 705.74 460.90 719.95 499.12 744.94 528.00 C 756.54 541.55 770.39 553.17 785.79 562.19 C 801.64 572.11 816.11 584.62 826.89 600.00 C 852.71 634.28 861.26 680.83 849.36 722.08 C 846.58 729.92 844.53 738.05 840.51 745.40 C 823.75 780.62 791.70 807.81 754.67 819.70 C 756.90 827.23 758.21 835.10 758.00 842.97 C 757.76 850.27 751.39 856.61 744.13 856.99 C 736.51 857.70 728.98 851.66 728.24 844.02 C 727.96 838.70 727.67 833.32 725.88 828.25 C 720.67 811.27 704.84 798.19 687.17 796.32 C 668.49 795.01 649.74 795.67 631.03 795.52 C 621.07 795.57 611.12 795.41 601.17 795.60 C 583.62 825.44 552.28 846.81 518.01 851.94 C 502.38 854.43 486.31 853.67 470.90 850.14 C 440.37 842.68 412.96 822.69 397.02 795.55 C 381.35 795.47 365.68 795.54 350.01 795.52 C 339.69 795.57 329.36 795.26 319.06 796.02 C 305.47 795.66 291.96 801.78 283.17 812.12 C 275.96 820.30 272.00 831.15 271.91 842.02 C 272.02 848.21 267.85 854.16 261.99 856.14 C 255.30 858.72 247.08 855.56 243.78 849.22 C 241.98 846.13 241.80 842.44 242.01 838.96 C 242.33 832.47 243.38 826.00 245.35 819.80 C 220.34 811.55 197.54 796.69 180.20 776.85 C 156.36 749.54 143.56 712.88 145.56 676.66 C 147.60 634.48 169.62 593.70 204.02 569.16 C 209.48 564.70 215.76 561.45 221.61 557.56 C 248.91 539.56 270.50 513.03 282.47 482.60 C 289.93 463.58 293.49 443.04 292.83 422.61 C 275.22 419.92 258.51 411.66 245.66 399.32 C 226.55 381.60 216.42 354.89 218.27 328.97 C 219.06 320.85 226.68 313.89 234.93 314.33 C 258.48 314.34 282.03 314.29 305.58 314.35 C 305.73 288.57 305.59 262.78 305.66 236.99 C 304.51 217.10 310.23 196.88 321.73 180.59 M 353.94 189.00 C 341.92 200.17 335.16 216.63 335.52 233.00 C 335.76 244.61 335.50 256.23 335.61 267.85 C 445.20 267.85 554.79 267.83 664.38 267.86 C 664.50 255.58 664.24 243.30 664.49 231.03 C 664.30 214.83 657.16 198.81 645.03 188.03 C 634.05 177.83 618.87 172.48 603.94 173.09 C 532.96 173.16 461.97 173.19 390.99 173.07 C 377.28 173.81 363.79 179.35 353.94 189.00 M 335.61 297.80 C 335.59 303.31 335.59 308.81 335.61 314.32 C 445.20 314.32 554.80 314.33 664.39 314.32 C 664.41 308.81 664.40 303.31 664.39 297.80 C 554.80 297.80 445.20 297.79 335.61 297.80 M 248.77 344.28 C 250.82 356.88 256.89 368.95 266.33 377.63 C 277.59 388.50 293.39 394.36 309.00 393.69 C 438.02 393.67 567.05 393.69 696.07 393.68 C 708.81 393.10 721.31 388.25 731.04 380.00 C 741.87 371.09 749.02 358.08 751.24 344.28 C 583.75 344.27 416.26 344.28 248.77 344.28 M 343.56 423.64 C 343.54 450.78 343.58 477.91 343.54 505.04 C 344.17 520.53 345.57 536.14 350.17 551.02 C 355.87 570.79 365.73 589.31 378.77 605.21 C 400.21 631.11 430.26 649.81 463.09 657.19 C 474.19 659.98 485.68 659.98 497.01 660.88 C 506.05 660.11 515.16 660.11 524.13 658.57 C 542.69 655.29 560.59 648.47 576.68 638.67 C 607.83 619.81 631.76 589.43 642.72 554.70 C 647.99 538.69 649.90 521.81 650.46 505.03 C 650.42 477.90 650.46 450.77 650.44 423.64 C 548.15 423.64 445.85 423.63 343.56 423.64 M 680.39 460.82 C 680.42 477.89 680.37 494.97 680.41 512.04 C 680.47 515.70 679.70 519.30 679.37 522.94 C 676.81 554.86 665.70 586.12 647.32 612.37 C 626.26 643.06 595.38 666.83 560.45 679.62 C 560.23 690.41 560.43 701.19 560.35 711.98 C 560.44 718.58 560.31 725.32 562.25 731.71 C 564.96 741.35 570.89 750.10 578.96 756.07 C 585.61 761.20 593.76 763.82 601.89 765.48 C 627.25 765.68 652.63 765.49 678.01 765.57 C 685.69 766.07 693.47 766.39 700.94 768.45 C 716.04 772.27 729.68 781.03 739.87 792.76 C 776.95 782.97 809.14 753.65 819.51 716.36 C 827.11 693.53 826.30 667.97 817.52 645.59 C 814.38 636.73 810.43 628.05 804.71 620.54 C 797.20 609.20 787.37 599.48 776.13 591.85 C 769.96 586.65 761.92 584.36 756.02 578.81 C 748.01 572.61 740.07 566.27 732.92 559.06 C 706.14 532.58 686.94 498.02 680.39 460.82 M 313.62 483.91 C 301.90 521.42 276.96 554.20 245.55 577.55 C 241.56 581.09 237.15 584.07 232.32 586.33 C 217.79 594.97 204.62 606.29 195.31 620.51 C 187.48 630.68 183.25 642.96 179.21 654.99 C 174.47 672.46 173.99 691.14 178.22 708.77 C 180.75 716.98 182.70 725.47 186.85 733.07 C 201.02 762.39 228.78 784.44 260.13 792.76 C 270.32 781.03 283.97 772.28 299.06 768.45 C 306.53 766.39 314.30 766.07 321.99 765.57 C 346.67 765.56 371.36 765.54 396.04 765.58 C 399.82 765.63 403.35 764.07 406.97 763.19 C 423.66 758.33 436.61 743.17 439.00 725.98 C 439.97 717.72 439.55 709.38 439.64 701.08 C 439.56 694.59 439.81 688.09 439.50 681.61 C 407.74 671.34 379.18 651.75 357.46 626.47 C 332.88 597.56 317.62 560.84 314.64 522.99 C 312.72 510.06 313.92 496.93 313.62 483.91 M 506.07 690.72 C 493.87 691.72 481.71 690.14 469.60 688.84 C 469.53 699.44 469.73 710.04 469.50 720.64 C 469.22 732.63 466.12 744.51 460.47 755.08 C 478.23 770.68 505.90 773.17 526.25 761.23 C 530.62 758.94 534.10 755.33 538.44 752.99 C 536.95 749.84 535.52 746.65 534.48 743.33 C 528.28 725.53 531.02 706.41 530.40 687.96 C 522.32 689.21 514.18 689.89 506.07 690.72 M 488.10 798.17 C 470.94 796.55 454.57 789.22 441.36 778.24 C 437.09 781.83 432.31 784.72 427.37 787.28 C 431.31 792.69 435.92 797.56 441.09 801.82 C 464.54 822.86 499.70 828.94 529.18 818.32 C 546.02 812.42 560.69 801.05 571.28 786.75 C 565.94 783.60 560.71 780.28 556.09 776.12 C 538.26 793.16 512.45 800.95 488.10 798.17 Z"></path><path fill="#000000" opacity="1.00" d=" M 280.28 575.42 C 287.27 572.78 295.79 576.38 298.84 583.19 C 301.10 587.83 300.54 593.48 297.87 597.83 C 292.10 607.94 284.77 617.36 275.46 624.44 C 268.97 629.13 258.99 627.21 254.66 620.50 C 250.31 614.41 251.57 605.19 257.46 600.54 C 263.37 595.69 268.15 589.60 271.82 582.92 C 273.57 579.46 276.60 576.68 280.28 575.42 Z"></path><path fill="#000000" opacity="1.00" d=" M 226.24 632.25 C 235.32 628.65 246.23 636.20 246.17 645.94 C 246.70 653.10 240.54 657.91 237.99 664.03 C 230.47 678.42 229.37 695.99 234.88 711.25 C 239.37 724.26 248.68 735.38 260.42 742.49 C 264.95 745.58 271.00 746.97 273.88 752.05 C 278.02 758.39 276.23 767.65 270.05 772.02 C 265.69 775.29 259.50 775.89 254.62 773.44 C 241.85 767.34 230.25 758.64 221.33 747.61 C 208.94 732.24 201.72 712.70 201.46 692.93 C 200.93 674.25 206.75 655.63 217.24 640.22 C 219.37 636.76 222.24 633.51 226.24 632.25 Z"></path></g></svg>