<svg xmlns="http://www.w3.org/2000/svg" xmlns:xlink="http://www.w3.org/1999/xlink" version="1.1" x="0px" y="0px" viewBox="0 0 100 100" enable-background="new 0 0 100 100" xml:space="preserve"><path d="M45.5,24c-15.5-0.5-23.328,5.623-23.328,5.623c-2.339,2.354-2.377,26.687-2.377,26.687s12.883,2.123,30.031,2.123  c17.139,0,21.271-1.246,23.389-2.123c2.138-0.882,3.758-2.502,3.758-2.502v-0.009c0,0.009,0,0.009,0,0.009s1.131,5.756,0,6.882  c-1.122,1.122-9.001,4.501-26.648,4.501c-17.646,0-30.53-3.125-30.53-3.125V57.56c-2.186,0.37-4.821,0.403-7.199,0.403  c-3.939,0-4.313-1.592-6.662-1.592c-2.338,0,0.278,3.566,2.723,6.477c2.444,2.908,24.864,6.283,38.572,7.691  c13.697,1.414,46.921,3.849,46.921-8.444c0-10.478-13.698-13.181-17.752-13.751c0,0.02,0.01,0.038,0.01,0.062  c-0.815-7.227-1.697-21.526-4.313-21.222C56.5,29,61,24.5,45.5,24z M76.962,53.702L76.962,53.702L76.962,53.702z M76.464,48.924  v0.005V48.924z"></path></svg>