<svg xmlns="http://www.w3.org/2000/svg" xmlns:xlink="http://www.w3.org/1999/xlink" version="1.1" x="0px" y="0px" viewBox="0 0 96 96" enable-background="new 0 0 96 96" xml:space="preserve"><path d="M71.2,28.036c1.748,0,3.17-1.422,3.17-3.169s-1.422-3.169-3.17-3.169c-1.748,0-3.169,1.422-3.169,3.169  S69.452,28.036,71.2,28.036z M71.2,24.697c0.094,0,0.17,0.076,0.17,0.169c0,0.187-0.339,0.188-0.339,0  C71.03,24.773,71.106,24.697,71.2,24.697z"></path><path d="M25.974,23.004c1.748,0,3.169-1.422,3.169-3.169s-1.422-3.169-3.169-3.169s-3.169,1.422-3.169,3.169  S24.226,23.004,25.974,23.004z M25.974,19.665c0.093,0,0.169,0.076,0.169,0.169c0,0.187-0.339,0.187-0.339,0  C25.804,19.741,25.88,19.665,25.974,19.665z"></path><polygon points="58.854,13.347 60.975,15.468 61.303,15.139 61.303,15.604 64.303,15.604 64.303,15.14 64.631,15.468 66.752,13.347   66.424,13.019 66.888,13.019 66.888,10.019 66.424,10.019 66.752,9.69 64.631,7.569 64.303,7.897 64.303,7.433 61.303,7.433   61.303,7.898 60.975,7.569 58.854,9.69 59.182,10.019 58.718,10.019 58.718,13.019 59.182,13.019 "></polygon><polygon points="37.452,14.713 39.573,16.834 41.269,15.138 41.269,17.537 44.269,17.537 44.269,15.14 45.964,16.834 48.085,14.713   46.39,13.019 48.787,13.019 48.787,10.019 46.389,10.019 48.084,8.324 45.963,6.203 44.269,7.896 44.269,5.5 41.269,5.5   41.269,7.898 39.574,6.203 37.453,8.324 39.147,10.019 36.75,10.019 36.75,13.019 39.146,13.019 "></polygon><path d="M28.8,58.408c1.781,4.77,0.209,15.953-1.932,25.092c-0.322,1.375-0.023,2.688,0.864,3.795  c3.568,4.455,16.977,4.706,19.942,4.706c0.134,0,0.238,0,0.328-0.001c0.089,0,0.194,0.001,0.328,0.001  c2.966,0,16.373-0.251,19.94-4.706c0.887-1.107,1.186-2.42,0.863-3.795c-2.142-9.138-3.713-20.321-1.932-25.092  c6.33-2.518,10.29-6.289,10.29-10.576c0-3.315-2.277-6.358-6.486-8.779c0.344-0.483,0.532-1.083,0.522-1.756  c-0.025-1.675-1.243-3.702-2.506-4.171c-1.183-0.438-4.347-0.654-6.442,0.482c-0.497,0.269-1.174,0.511-1.89,0.767  c-0.514,0.184-1.055,0.388-1.599,0.613c-0.784-0.145-1.576-0.283-2.367-0.395c-0.337-0.047-0.689-0.079-1.032-0.121  c0.3-1.319,0.728-2.533,1.008-3.045c0.376-0.687,0.61-1.585,0.01-2.402c1.542-0.593,2.232-2.322,2.904-4.004l0.136-0.34  c1.095-2.72-0.055-4.381-0.189-4.562l-0.407-0.546l-0.679-0.053c-2.062-0.16-8.942-0.629-10.919,0.085  c-1.017,0.367-2.094,1.133-3.234,1.944c-0.511,0.363-1.052,0.746-1.579,1.083c-2.367-0.07-12.557-0.072-17.779,4.695l-0.908,0.829  l0.635,1.053c0.044,0.073,0.744,1.198,2.195,2.051c-0.614,0.54-1.092,1.057-1.365,1.53l-0.728,1.262l1.241,0.765  c0.163,0.1,2.205,1.312,5.562,1.438c-8.042,2.461-13.083,6.698-13.083,11.576C18.511,52.119,22.471,55.89,28.8,58.408z   M65.928,85.42c-2.16,2.696-12.052,3.625-17.881,3.58c-5.826,0.041-15.803-0.87-17.974-3.58c-0.311-0.389-0.396-0.758-0.284-1.235  c1.259-5.372,3.709-17.396,2.405-24.614c4.543,1.331,9.948,2.096,15.807,2.096c5.858,0,11.263-0.766,15.806-2.096  c-1.304,7.219,1.146,19.242,2.405,24.614C66.323,84.662,66.239,85.032,65.928,85.42z M34.99,26.204  c-1.742,0.889-3.597,1.914-5.219,2.951c-0.632-0.101-1.144-0.321-1.529-0.569C30.162,27.349,32.625,26.627,34.99,26.204z   M29.491,32.967c3.167-2.395,10.465-6.043,12.284-6.55c1.448-0.404,2.89-1.43,4.285-2.422c0.926-0.658,1.883-1.339,2.514-1.567  c0.353-0.127,1.255-0.189,2.445-0.202l-0.228,0.07c-3.361,1.037-3.729,2.071-3.868,2.46c-0.193,0.542-0.122,1.127,0.197,1.606  c0.561,0.841,1.681,1.141,2.543,1.141c0,0,0,0,0,0c1.086,0,2.037-0.434,2.609-1.191c0.415-0.548,0.822-1.513,0.403-2.992  l-0.309-1.091c1.483,0.022,3.206,0.098,4.85,0.208c-0.003,0.276-0.062,0.649-0.252,1.124l-0.14,0.348  c-0.435,1.09-0.928,2.326-1.328,2.331c-0.823,0.011-2.536,0.034-3.077,1.365c-0.181,0.446-0.333,1.348,0.685,2.365  c0.241,0.241,0.482,0.425,0.699,0.57c-0.565,1.314-1.451,4.063-1.454,6.525c-0.841-0.052-1.708-0.151-2.504-0.3l-0.554,2.948  c1.074,0.202,6.551,1.114,8.869-0.788c0.994-0.816,2.287-1.278,3.537-1.725c0.828-0.296,1.61-0.576,2.31-0.955  c1.119-0.605,3.203-0.512,3.866-0.338c0.266,0.262,0.618,0.969,0.654,1.358c-0.41,0.102-0.986,0.044-1.545-0.012  c-1.182-0.12-2.971-0.298-4.009,1.331c-0.631,0.993-6.413,7.141-10.755,7.141c-0.044,0-0.088-0.001-0.132-0.002  c-1.479-0.043-2.648-0.873-3.573-2.534l-2.621,1.459c1.821,3.272,4.326,4.021,6.106,4.074c0.072,0.002,0.143,0.003,0.214,0.003  c0.196,0,0.393-0.029,0.589-0.044v2.538c-1.49,0.107-3.084,0.174-4.801,0.174c-2.714,0-5.152-0.154-7.29-0.401  c0.071-2.346,0.333-4.865,0.719-5.595c0.99-1.871,2.265-5.582,2.984-9.418c0.23,0.024,0.459,0.05,0.699,0.05  c1.114,0,2.332-0.274,3.614-0.967l-1.426-2.64c-1.735,0.938-3.155,0.626-4.125,0.107c0.506-0.338,1.017-0.696,1.538-1.092  l-1.817-2.387C36.762,33.723,31.978,33.573,29.491,32.967z M65.472,47.811c-0.237,0.881-3.714,2.364-9.671,3.115v-2.968  c1.512-0.605,2.971-1.505,4.28-2.488C64.259,46.437,65.4,47.584,65.472,47.811z M40.622,34.424  c-0.355,0.041-0.707,0.085-1.055,0.132c0.251-0.113,0.504-0.234,0.76-0.362C40.417,34.272,40.523,34.347,40.622,34.424z   M41.045,37.398c-0.397,1.637-0.87,3.148-1.317,4.365c-4.938,0.62-12.198,2.19-12.198,6.069c0,5.179,12.867,6.561,20.47,6.561  c7.603,0,20.469-1.382,20.469-6.561c0-1.987-1.888-3.572-5.618-4.728c1.452-1.392,2.433-2.582,2.624-2.893  c0.16-0.072,0.72-0.022,1.11,0.017c5.024,2.08,7.905,4.844,7.905,7.603c0,5.232-10.644,10.834-26.49,10.834  s-26.49-5.602-26.49-10.834C21.511,43.122,29.941,38.7,41.045,37.398z M38.402,44.984c-0.455,1.59-0.621,3.938-0.679,5.571  c-4.439-0.796-6.993-1.977-7.195-2.701C30.663,47.354,32.803,45.892,38.402,44.984z"></path></svg>