<svg xmlns="http://www.w3.org/2000/svg" viewBox="0 0 52 34.36" x="0px" y="0px"><title>property</title><g data-name="Layer 2"><g><g data-name="House"><path d="M14.51,9,.16,22.07a.48.48,0,0,0,.32.83H3.76V34.36h8c0-.46,0-.92,0-1,0-2.68,1.24-4.86,2.78-4.86s2.78,2.18,2.78,4.86c0,.12,0,.58,0,1H26V22.9h2.58a.48.48,0,0,0,.32-.83Zm2.08,12.49H12.43V16h4.16Zm34.93-2.69H47.91V34.36h-21V23.86h5.33L20.36,13.05,33.6,0,51.86,18A.48.48,0,0,1,51.52,18.82ZM33.38,9.41H30.13v7.53h3.25Zm.43,7.53h3.25V9.41H33.82Zm5.64,7.53H35.33v5.65h4.12Zm4.55,0H39.89v5.65H44Z"></path></g></g></g></svg>