<svg xmlns="http://www.w3.org/2000/svg" data-name="Layer 1" viewBox="0 0 100 100" x="0px" y="0px"><title>105all</title><path d="M85.25,54.17c1.16-9.72,2.47-20.72-.33-26.93C80.76,15.46,68.13,6.92,54.83,6.92c-17,0-31.47,13.61-31.81,29.85L13.61,60.84a3,3,0,0,0,2.51,4.08l7.48.71,2.78,13.52a3,3,0,0,0,3.14,2.39L40,80.83,39.71,90a3,3,0,0,0,3,3.11h0l40.41-.46a3,3,0,0,0,3-3.28L84.49,72.39a60.07,60.07,0,0,1-.13-9.73C84.52,60.23,84.88,57.29,85.25,54.17ZM78.52,73l1.3,13.69-34,.39.26-6.91,10-1.85L55,72.39,42.8,74.64l-11.06.74L29,62.25a3,3,0,0,0-2.65-2.38l-5.73-.55,8.17-20.88A3,3,0,0,0,29,37.35c0-13.24,11.82-24.43,25.81-24.43,10.88,0,21.17,6.91,24.47,16.42a2.92,2.92,0,0,0,.12.29c2.16,4.63.89,15.28-.13,23.83-.38,3.2-.74,6.22-.92,8.79A66.1,66.1,0,0,0,78.52,73Z"></path><path d="M55.43,37.3,58,37.11a1.41,1.41,0,0,0,1-.42,1.35,1.35,0,0,0,.39-1l.09-4.83s0,0,0,0a1.41,1.41,0,0,0-1.09-1.36l-.1,0-2.62-.26a9.37,9.37,0,0,0-.85-1.54L56,25.32a1.38,1.38,0,0,0-.47-1.81L51.39,21a1.38,1.38,0,0,0-1.81.4l-1.65,2.12a8.15,8.15,0,0,0-1.8,0l-1.48-2.17,0-.06a1.49,1.49,0,0,0-.8-.49,1.24,1.24,0,0,0-1,.18l-4.21,2.25a1.35,1.35,0,0,0-.7.8,1.39,1.39,0,0,0,0,1l1,2.43c-.18.24-.34.5-.5.76s-.31.51-.45.79l-2.61.19a1.41,1.41,0,0,0-1,.42,1.35,1.35,0,0,0-.39,1L34,35.41s0,0,0,0a1.4,1.4,0,0,0,1.09,1.36h.08l2.59.33a9.35,9.35,0,0,0,.86,1.56l-1.16,2.34a1.38,1.38,0,0,0,.47,1.81L42,45.37A1.38,1.38,0,0,0,43.84,45l1.54-2.08a8.33,8.33,0,0,0,1.79,0l1.48,2.17,0,.07a1.36,1.36,0,0,0,1.8.31L54.7,43.2a1.35,1.35,0,0,0,.7-.79,1.41,1.41,0,0,0,0-1l-.89-2.53c.19-.25.35-.52.52-.79S55.29,37.58,55.43,37.3ZM51.49,36a5.52,5.52,0,1,1-1.83-7.6A5.47,5.47,0,0,1,51.49,36Z"></path><path d="M76.21,45.42l-1.81-1A7.37,7.37,0,0,0,74.26,43l1.57-1.33a1.08,1.08,0,0,0,.23-1.45l-2.19-3.09a1.08,1.08,0,0,0-1.43-.28l-1.85,1a6.41,6.41,0,0,0-1.29-.57l-.39-2,0-.06a1.17,1.17,0,0,0-.42-.6,1,1,0,0,0-.78-.18l-3.74.32a1.06,1.06,0,0,0-.75.36,1.1,1.1,0,0,0-.28.75V38c-.2.12-.4.26-.6.4s-.38.27-.57.43l-1.94-.68a1.11,1.11,0,0,0-.82,0,1.06,1.06,0,0,0-.59.59l-1.57,3.46v0a1.1,1.1,0,0,0,.37,1.32l.05,0,1.77,1A7.35,7.35,0,0,0,59.12,46l-1.57,1.33a1.08,1.08,0,0,0-.23,1.45l2.19,3.09a1.08,1.08,0,0,0,1.44.27l1.76-1a6.55,6.55,0,0,0,1.28.57l.39,2,0,.06a1.07,1.07,0,0,0,1.21.78l3.74-.32a1.06,1.06,0,0,0,.75-.36,1.11,1.11,0,0,0,.28-.74l.14-2.1c.21-.12.42-.27.62-.41s.38-.27.57-.43l1.94.68a1.11,1.11,0,0,0,.82,0,1.06,1.06,0,0,0,.59-.59l1.57-3.46v0a1.1,1.1,0,0,0-.37-1.32ZM69.36,48.1a4.47,4.47,0,1,1,1.07-6.24A4.43,4.43,0,0,1,69.36,48.1Z"></path></svg>