<svg xmlns="http://www.w3.org/2000/svg" xmlns:xlink="http://www.w3.org/1999/xlink" version="1.1" x="0px" y="0px" viewBox="0 0 100 100" enable-background="new 0 0 100 100" xml:space="preserve"><g><path d="M41.25,68.779l50.666-1.333l-2.75-41L28.75,27.112L8.916,25.779c0.07,0.733-0.171,1.697-0.162,2.521   c0.016,1.358-0.287,2.818-0.404,4.173c-0.155,1.795-0.903,3.69,0.132,5.306c0.896,1.4,1.536,1.867,1.372,3.68   c-0.076,0.841,0.156,1.243,0.893,1.759c0.344,0.241,0.714,0.277,1.068,0.561c0.42,0.336,0.728,0.866,1.122,1.237   c0.397,0.373,0.561,0.356,0.815,0.973c0.259,0.627,0.283,1.372,0.596,1.975c0.405,0.782,1.659,2.234,2.404,2.707   c0.28-0.789,1.514-0.161,2.068-0.049c0.054,1.056,0.065,2.146-0.339,3.141c-0.463,1.135-0.441,1.927-0.5,3.169   c-0.027,0.57,0.01,1.324-0.233,1.847c-0.253,0.541-0.694,0.462-0.939,0.92c-0.247,0.462,0.263,0.971,0.21,1.417   c-0.052,0.427-0.466,0.516-0.508,0.982c0.889,0.263,1.282,1.091,2.067,0.173c0.606-0.708,0.619-1.673,1.672-1.843   c0.959-0.155,1.453,0.874,1.916,1.603c0.585,0.919,0.536,1.818,0.496,2.841c-0.052,1.301,0.618,1.069,1.19,1.993   c0.45,0.727,0.071,1.642,0.31,2.421c0.325,1.065,1.012,0.7,1.836,0.992c0.902,0.319,1.315,1.454,1.418,2.338   c0.05,0.43-0.079,0.782,0.163,1.163c0.569,0.898,0.579,0.223,1.004-0.172c0.795-0.736,1.388,0.174,2.314,0.197   c0.779,0.02,0.918-0.989,1.77-1.091c0.488-0.059,0.866,0.336,1.334,0.401c0.583,0.081,0.813-0.149,1.398-0.256   c0.906-0.164,1.432,0.301,2-0.58c0.459-0.71,0.565-1.613,1.665-1.184c0.75,0.293,0.879,1.052,1.246,1.626   c0.251,0.393,0.826,0.822,0.939,1.144V68.779z"></path></g></svg>