<svg fill="#0A97E8" xmlns="http://www.w3.org/2000/svg" xmlns:xlink="http://www.w3.org/1999/xlink" viewBox="0 0 200 200" version="1.1" x="0px" y="0px"><title>UX Ideation</title><desc>Created with Sketch.</desc><g stroke="none" stroke-width="1" fill="none" fill-rule="evenodd"><g><path d="M96.0831737,12.4809293 C98.0133606,10.5063569 101.142812,10.5063569 103.072999,12.4809293 L181.708532,92.9247204 C183.638719,94.8992928 183.638719,98.1007072 181.708532,100.07528 L103.072999,180.519071 C101.142812,182.493643 98.0133606,182.493643 96.0831737,180.519071 L17.4476402,100.07528 C15.5174533,98.1007072 15.5174533,94.8992928 17.4476402,92.9247204 L96.0831737,12.4809293 Z M98.8109929,23.3624993 L29.5062575,95.1248494 C29.0394776,95.6081817 29.0394776,96.3918183 29.5062575,96.8751506 L98.8109929,168.637501 C99.2777728,169.120833 100.034572,169.120833 100.501352,168.637501 L169.806088,96.8751506 C170.272868,96.3918183 170.272868,95.6081817 169.806088,95.1248494 L100.501352,23.3624993 C100.034572,22.8791669 99.2777728,22.8791669 98.8109929,23.3624993 Z" fill="#0A97E8"></path><path d="M100,114 C82.8791728,114 69,100.120827 69,83 C69,65.8791728 82.8791728,52 100,52 C117.120827,52 131,65.8791728 131,83 C131,100.120827 117.120827,114 100,114 Z M100,105 C112.150264,105 122,95.1502645 122,83 C122,70.8497355 112.150264,61 100,61 C87.8497355,61 78,70.8497355 78,83 C78,95.1502645 87.8497355,105 100,105 Z" fill="#0A97E8"></path><path d="M90.5,117 L109.5,117 C111.432997,117 113,118.567003 113,120.5 C113,122.432997 111.432997,124 109.5,124 L90.5,124 C88.5670034,124 87,122.432997 87,120.5 C87,118.567003 88.5670034,117 90.5,117 Z M90.5,127 L109.5,127 C111.432997,127 113,128.567003 113,130.5 C113,132.432997 111.432997,134 109.5,134 L90.5,134 C88.5670034,134 87,132.432997 87,130.5 C87,128.567003 88.5670034,127 90.5,127 Z M96.5,137 L103.5,137 C105.432997,137 107,138.567003 107,140.5 C107,142.432997 105.432997,144 103.5,144 L96.5,144 C94.5670034,144 93,142.432997 93,140.5 C93,138.567003 94.5670034,137 96.5,137 Z" fill="#0A97E8"></path><rect fill="#0A97E8" transform="translate(109.863272, 76.280963) rotate(-33.000000) translate(-109.863272, -76.280963) " x="105.911547" y="67.7809633" width="7.90344935" height="17" rx="3.95172468"></rect></g></g></svg>