<svg xmlns:dc="http://purl.org/dc/elements/1.1/" xmlns:cc="http://creativecommons.org/ns#" xmlns:rdf="http://www.w3.org/1999/02/22-rdf-syntax-ns#" xmlns:svg="http://www.w3.org/2000/svg" xmlns="http://www.w3.org/2000/svg" xmlns:sodipodi="http://sodipodi.sourceforge.net/DTD/sodipodi-0.dtd" xmlns:inkscape="http://www.inkscape.org/namespaces/inkscape" version="1.1" x="0px" y="0px" viewBox="0 0 100 100"><g transform="translate(0,-952.36218)"><path style="text-indent:0;text-transform:none;direction:ltr;block-progression:tb;baseline-shift:baseline;color:#000000;enable-background:accumulate;" d="m 25.000007,966.36219 c -1.6767,0.017 -3.0058,1.6916 -3,3 l 0,14 c 2e-4,1.5708 1.4292,2.9998 3,3 l 18,0 c 1.5708,-2e-4 2.9998,-1.4292 3,-3 l 0,-14 c -2e-4,-1.5708 -1.4292,-2.9998 -3,-3 z m 3,6 12,0 0,8 -12,0 z m 23,1 c -1.6568,0 -3,1.3432 -3,3 0,1.6568 1.3432,3 3,3 l 24.000005,0 c 1.6568,0 3,-1.3432 3,-3 0,-1.6568 -1.3432,-3 -3,-3 z m -4,14.9375 c -0.9751,0.011 -1.9305,0.5307 -2.4688,1.3438 l -7.3124,10.59371 -3.5626,-2.37501 c -1.2914,-1.0576 -3.4716,-0.7319 -4.3974,0.657 -0.9259,1.3888 -0.388,3.52661 1.085,4.31181 l 6,4 c 1.2899,0.8594 3.2387,0.4903 4.125,-0.7813 l 9,-13 c 0.6428,-0.8953 0.7333,-2.15561 0.225,-3.1335 -0.5082,-0.978 -1.5917,-1.62811 -2.6938,-1.6165 z m -22,2.0625 c -1.7927,0.017 -2.9947,1.6198 -3,3 l 0,18.00001 c 2e-4,1.5708 1.4292,2.9998 3,3 l 18,0 c 1.5708,-2e-4 2.9998,-1.4292 3,-3 l 0,-2 c 0.021,-1.4159 -1.1043,-2.7612 -2.5,-3 -1.3958,-0.2389 -2.8925,0.6578 -3.3438,2 l -12.1562,0 0,-12.00001 9,0 c 1.5849,0.022 3.0312,-1.4149 3.0312,-3 0,-1.5851 -1.4463,-3.0224 -3.0312,-3 z m 26,9 c -1.6568,0 -3,1.34321 -3,3.00001 0,1.6569 1.3432,3 3,3 l 24.000005,0 c 1.6568,0 3,-1.3431 3,-3 0,-1.6568 -1.3432,-3.00001 -3,-3.00001 z m -26,19.00001 c -1.6767,0.017 -3.0058,1.6916 -3,3 l 0,14 c 2e-4,1.5708 1.4292,2.9998 3,3 l 18,0 c 1.5708,-2e-4 2.9998,-1.4292 3,-3 l 0,-14 c -2e-4,-1.5708 -1.4292,-2.9998 -3,-3 z m 3,6 12,0 0,8 -12,0 z m 23,1 c -1.6568,0 -3,1.3432 -3,3 0,1.6568 1.3432,3 3,3 l 24.000005,0 c 1.6568,0 3,-1.3432 3,-3 0,-1.6568 -1.3432,-3 -3,-3 z" fill="#000000" fill-opacity="1" stroke="none" marker="none" visibility="visible" display="inline" overflow="visible"></path></g></svg>