<svg xmlns="http://www.w3.org/2000/svg" xmlns:xlink="http://www.w3.org/1999/xlink" version="1.1" x="0px" y="0px" viewBox="0 0 50 50" style="enable-background:new 0 0 50 50;" xml:space="preserve"><g><path d="M48.2,22.4l-3.9-0.8c-0.5-2.9-1.6-5.6-3.3-7.9l2.2-3.3c0.3-0.4,0.2-0.9-0.1-1.3l-2.2-2.2c-0.3-0.3-0.9-0.4-1.3-0.1L36.3,9   c-2.3-1.7-5-2.8-7.9-3.3l-0.8-3.9c-0.1-0.5-0.5-0.8-1-0.8h-3.2c-0.5,0-0.9,0.3-1,0.8l-0.8,3.9C18.7,6.2,16,7.3,13.7,9l-3.3-2.2   C10,6.5,9.5,6.6,9.1,6.9L6.9,9.1C6.6,9.5,6.5,10,6.8,10.4L9,13.7c-1.6,2.3-2.8,5-3.3,7.9l-3.9,0.8c-0.5,0.1-0.8,0.5-0.8,1v3.2   c0,0.5,0.3,0.9,0.8,1l3.9,0.8C6.2,31.3,7.3,34,9,36.3l-2.2,3.3c-0.3,0.4-0.2,0.9,0.1,1.3l2.2,2.2c0.3,0.3,0.9,0.4,1.3,0.1l3.3-2.2   c2.3,1.7,5,2.8,7.9,3.3l0.8,3.9c0.1,0.5,0.5,0.8,1,0.8h3.2c0.5,0,0.9-0.3,1-0.8l0.8-3.9c2.9-0.5,5.6-1.6,7.9-3.3l3.3,2.2   c0.4,0.3,0.9,0.2,1.3-0.1l2.2-2.2c0.3-0.3,0.4-0.9,0.1-1.3L41,36.3c1.6-2.3,2.8-5,3.3-7.9l3.9-0.8c0.5-0.1,0.8-0.5,0.8-1v-3.2   C49,22.9,48.6,22.5,48.2,22.4z M25,38.2c-7.3,0-13.2-5.9-13.2-13.2c0-7.3,5.9-13.2,13.2-13.2c7.3,0,13.2,5.9,13.2,13.2   C38.2,32.3,32.3,38.2,25,38.2z"></path><path d="M33,30.7c-0.1,0-4.4-1.6-4.5-1.6v0l-0.8-1.4l0,0V27c0.8-1.1,1.8-1.5,1.8-2.6v-0.7c1,0.5,1.9-3.8,0.6-3.8   c0.1-0.8,0.1-1.9,0.1-2.5c-0.1-0.9-1.2-1.3-1.2-1.3c-0.3-1.7-2.2-2.2-3.9-2c-3.8,0.2-5.5,2.3-5.3,5.8c-1.1,0.3-0.4,4,0.7,3.8   c0,0,0.1,0,0.1,0c0,0.5-0.1,1.2,0.4,1.8l1.4,1.5l0,0.8l0,0l-0.9,1.4v0c-3.8,1.4-5.4,1.6-6.3,2.9c2.2,3.1,5.8,5.1,9.9,5.1   c4.1,0,7.7-2,9.9-5.1C34.5,31.5,34,31.1,33,30.7C33.1,30.7,33.1,30.7,33,30.7z"></path></g></svg>