<svg xmlns="http://www.w3.org/2000/svg" xmlns:xlink="http://www.w3.org/1999/xlink" version="1.1" x="0px" y="0px" viewBox="0 0 90 90" enable-background="new 0 0 90 90" xml:space="preserve"><path fill="none" stroke="#000000" stroke-width="3" stroke-linecap="round" stroke-linejoin="round" stroke-miterlimit="10" d="  M370.158-25.11"></path><g><path d="M80.186,25.17l-6.914-6.914c-0.562-0.562-1.559-0.562-2.121,0l-9.626,9.626V16.194c0-0.829-0.672-1.5-1.5-1.5H48.881   v-3.895c0-0.829-0.672-1.5-1.5-1.5H24.116c-0.828,0-1.5,0.671-1.5,1.5v3.895H11.472c-0.828,0-1.5,0.671-1.5,1.5v62.883   c0,0.829,0.672,1.5,1.5,1.5h48.554c0.828,0,1.5-0.671,1.5-1.5v-32.9c0-0.07-0.011-0.137-0.021-0.204l18.682-18.682   C80.772,26.706,80.772,25.756,80.186,25.17z M47.791,55.445l-4.793-4.793l22.644-22.644l4.82,4.766L47.791,55.445z M40.75,52.867   c0.03-0.026,0.069-0.036,0.097-0.065l0.029-0.029l4.793,4.793l-0.029,0.029c-0.029,0.029-0.039,0.067-0.065,0.097l-9.858,5.033   L40.75,52.867z M25.616,12.299h20.265v7.453H25.616V12.299z M58.525,77.577H12.972V17.694h9.645v3.558c0,0.829,0.672,1.5,1.5,1.5   h23.265c0.828,0,1.5-0.671,1.5-1.5v-3.558h9.645v13.188l-19.8,19.799c-0.027,0.027-0.037,0.064-0.062,0.093   c-0.203,0.137-0.378,0.32-0.497,0.553l-7.227,14.157c-0.296,0.579-0.185,1.283,0.275,1.743c0.288,0.288,0.672,0.439,1.061,0.439   c0.232,0,0.466-0.054,0.682-0.164l14.156-7.228c0.233-0.119,0.416-0.294,0.553-0.496c0.029-0.025,0.066-0.035,0.094-0.062   l10.764-10.764L58.525,77.577L58.525,77.577z M72.583,30.653l-4.82-4.766l4.449-4.449l4.793,4.793L72.583,30.653z"></path><path d="M19.457,29.79h32.959c0.828,0,1.5-0.671,1.5-1.5s-0.672-1.5-1.5-1.5H19.457c-0.828,0-1.5,0.671-1.5,1.5   S18.629,29.79,19.457,29.79z"></path><path d="M19.457,35.45h32.959c0.828,0,1.5-0.671,1.5-1.5s-0.672-1.5-1.5-1.5H19.457c-0.828,0-1.5,0.671-1.5,1.5   S18.629,35.45,19.457,35.45z"></path><path d="M27.08,38.808h-7.472c-0.828,0-1.5,0.671-1.5,1.5v7.473c0,0.829,0.672,1.5,1.5,1.5h7.472c0.828,0,1.5-0.671,1.5-1.5v-7.473   C28.58,39.48,27.908,38.808,27.08,38.808z M25.58,46.281h-4.472v-4.473h4.472V46.281z"></path><path d="M27.08,52.113h-7.472c-0.828,0-1.5,0.671-1.5,1.5v7.473c0,0.829,0.672,1.5,1.5,1.5h7.472c0.828,0,1.5-0.671,1.5-1.5v-7.473   C28.58,52.784,27.908,52.113,27.08,52.113z M25.58,59.586h-4.472v-4.473h4.472V59.586z"></path></g></svg>