<?xml version="1.0" encoding="utf-8"?>
<!-- Generator: Adobe Illustrator 22.1.0, SVG Export Plug-In . SVG Version: 6.00 Build 0)  -->
<svg version="1.1"
	 id="Layer_1" xmlns:cc="http://creativecommons.org/ns#" xmlns:dc="http://purl.org/dc/elements/1.1/" xmlns:inkscape="http://www.inkscape.org/namespaces/inkscape" xmlns:rdf="http://www.w3.org/1999/02/22-rdf-syntax-ns#" xmlns:sodipodi="http://sodipodi.sourceforge.net/DTD/sodipodi-0.dtd" xmlns:svg="http://www.w3.org/2000/svg"
	 xmlns="http://www.w3.org/2000/svg" xmlns:xlink="http://www.w3.org/1999/xlink" x="0px" y="0px" viewBox="0 0 100 100"
	 style="enable-background:new 0 0 100 100;" xml:space="preserve">
<style type="text/css">
	.st0{fill:#ABD3EB;}
</style>
<g transform="translate(0,-952.36218)">
	<path class="st0" d="M19,960.4v84h62v-64H63c-1.1,0-2-0.9-2-2v-18H19z M65,960.4v16h16L65,960.4z M39,970.4c2.8,0,5,2.2,5,5
		s-2.2,5-5,5s-5-2.2-5-5S36.2,970.4,39,970.4z M39,984.4c6.1,0,11,4.5,11,10H28C28,988.8,32.9,984.4,39,984.4z M27.7,1003.4
		C27.7,1003.4,27.8,1003.4,27.7,1003.4c0.2,0,0.2,0,0.3,0h44c1.1,0,2,0.9,2,2c0,1.1-0.9,2-2,2c0,0,0,0-0.1,0H28
		c-1.1,0.1-2.1-0.8-2.1-1.9S26.6,1003.4,27.7,1003.4z M27.7,1014.4C27.7,1014.4,27.8,1014.4,27.7,1014.4c0.2,0,0.2,0,0.3,0h44
		c1.1,0,2,0.9,2,2c0,1.1-0.9,2-2,2c0,0,0,0-0.1,0H28c-1.1,0.1-2.1-0.8-2.1-1.9S26.6,1014.4,27.7,1014.4z M27.7,1025.4
		C27.7,1025.4,27.8,1025.4,27.7,1025.4c0.2,0,0.2,0,0.3,0h44c1.1,0,2,0.9,2,2c0,1.1-0.9,2-2,2c0,0,0,0-0.1,0H28
		c-1.1,0.1-2.1-0.8-2.1-1.9S26.6,1025.4,27.7,1025.4z"/>
</g>
</svg>
