<svg xmlns="http://www.w3.org/2000/svg" xmlns:xlink="http://www.w3.org/1999/xlink" version="1.1" x="0px" y="0px" viewBox="0 0 100 100" enable-background="new 0 0 100 100" xml:space="preserve"><g><circle cx="61.015" cy="58.584" r="1.264"></circle><path d="M95.132,49.44H38.538c-1.433,0-2.593,1.16-2.593,2.592v36.289c0,1.433,1.16,2.593,2.593,2.593h56.594   c1.432,0,2.592-1.16,2.592-2.593V52.032C97.724,50.601,96.563,49.44,95.132,49.44z M68.11,73.367L56.299,61.555l1.349-6.339   l6.339-1.349l11.812,11.812L68.11,73.367z"></path><path d="M56.826,47.582v-2.607c0-1.432,1.16-2.592,2.592-2.592h14.833c1.431,0,2.592,1.16,2.592,2.592v2.607h4.752v-2.607   c0-4.049-3.295-7.345-7.344-7.345H59.418c-4.049,0-7.345,3.296-7.345,7.345v2.607H56.826z"></path><path d="M35.089,40.056l3.856,7.526h9.779l-3.558-17.599L59.546,15.6c1.49-1.491,1.49-3.907,0-5.395   c-1.489-1.489-3.906-1.495-5.398,0L39.768,24.586L5.275,17.609l-2.999,2.999l27.417,14.05l-14.039,14.04l-7.41-1.497l-2.999,2.998   l9.46,4.849l4.846,9.458l3-3l-1.5-7.413L35.089,40.056z"></path></g></svg>