<svg fill="#D8A83A" xmlns="http://www.w3.org/2000/svg" xmlns:xlink="http://www.w3.org/1999/xlink" version="1.1" x="0px" y="0px" viewBox="0 0 80 80" style="enable-background:new 0 0 80 80;" xml:space="preserve"><path d="M75.245,67.906C75.725,67.045,76,66.054,76,65V47.4c0-2.426-1.974-4.4-4.4-4.4h-0.4c-0.188,0-0.374,0.012-0.557,0.035  C70.132,41.172,68.423,39.8,66.4,39.8h-0.8c-0.439,0-0.863,0.064-1.264,0.185C63.534,38.903,62.248,38.2,60.8,38.2H60  c-0.135,0-0.268,0.006-0.4,0.018v-4.415c-0.001-2.642-2.151-4.795-4.793-4.799c-0.002,0-0.005,0-0.007,0  c-1.281,0-2.485,0.498-3.391,1.403C50.5,31.314,50,32.521,50,33.804v16.689c0,0.16-0.071,0.278-0.212,0.354  c-0.141,0.075-0.279,0.067-0.411-0.021l-0.77-0.518c-1.99-1.329-4.297-2.188-6.668-2.485l-0.132-0.017  c-1.369-0.176-2.74,0.327-3.671,1.33c-0.927,0.999-1.32,2.393-1.052,3.73c0.219,1.091,0.835,2.052,1.735,2.708l2.607,1.896  c3.054,2.22,5.665,5.663,7.353,9.693l0.135,0.32c0.233,0.512,0.537,0.978,0.891,1.395C49.301,69.594,49,70.461,49,71.4v1.2  c0,2.426,1.974,4.4,4.4,4.4H65c1.104,0,2-0.896,2-2s-0.896-2-2-2H53.4c-0.221,0-0.4-0.179-0.4-0.4v-1.2c0-0.221,0.179-0.4,0.4-0.4  h0.976H70h2.6c0.221,0,0.4,0.179,0.4,0.4v1.2c0,0.221-0.179,0.4-0.4,0.4H71c-1.104,0-2,0.896-2,2s0.896,2,2,2h1.6  c2.426,0,4.4-1.974,4.4-4.4v-1.2C77,69.97,76.304,68.711,75.245,67.906z M54.376,67c-0.782,0-1.497-0.46-1.797-1.117l-0.111-0.265  c-1.966-4.696-5.052-8.738-8.689-11.383l-2.606-1.896c-0.086-0.063-0.146-0.155-0.167-0.262c-0.006-0.031-0.025-0.125,0.061-0.219  c0.053-0.057,0.121-0.086,0.198-0.086c0.014,0,0.027,0.001,0.042,0.002l0.131,0.017c1.761,0.22,3.472,0.857,4.942,1.839l0.765,0.514  c1.353,0.909,3.086,0.998,4.523,0.232C53.106,53.611,54,52.124,54,50.494V33.804c0-0.289,0.147-0.479,0.235-0.566  c0.087-0.087,0.277-0.234,0.565-0.234c0,0,0.001,0,0.001,0c0.44,0,0.799,0.36,0.799,0.8V42.6v2c0,1.104,0.896,2,2,2s2-0.896,2-2v-2  c0-0.221,0.179-0.4,0.4-0.4h0.8c0.221,0,0.4,0.179,0.4,0.4v1.6v2c0,1.104,0.896,2,2,2s2-0.896,2-2v-2c0-0.221,0.179-0.4,0.4-0.4h0.8  c0.221,0,0.4,0.18,0.4,0.4v3.2v1.2c0,1.104,0.896,2,2,2s2-0.896,2-2v-1.2c0-0.221,0.179-0.4,0.4-0.4h0.4c0.221,0,0.4,0.179,0.4,0.4  V65c0,1.103-0.897,2-2,2H54.376z"></path><path d="M42,29.5v-9c0-3.033,2.467-5.5,5.5-5.5s5.5,2.467,5.5,5.5V25c0,1.104,0.896,2,2,2s2-0.896,2-2v-4.5  c0-5.238-4.262-9.5-9.5-9.5S38,15.262,38,20.5v9C38,36.393,32.393,42,25.5,42S13,36.393,13,29.5V9.828l2.586,2.586  C15.976,12.805,16.488,13,17,13s1.024-0.195,1.414-0.586c0.781-0.781,0.781-2.047,0-2.828l-5.999-5.999  c-0.093-0.093-0.196-0.177-0.306-0.25c-0.05-0.034-0.105-0.057-0.158-0.086c-0.062-0.034-0.121-0.071-0.186-0.098  c-0.067-0.028-0.137-0.044-0.206-0.064c-0.056-0.016-0.11-0.038-0.168-0.05c-0.259-0.051-0.525-0.051-0.784,0  c-0.058,0.012-0.112,0.033-0.168,0.05c-0.069,0.02-0.138,0.036-0.205,0.064c-0.066,0.027-0.125,0.065-0.187,0.099  C9.995,3.28,9.941,3.303,9.891,3.337c-0.11,0.074-0.213,0.157-0.306,0.25L3.586,9.586c-0.781,0.781-0.781,2.047,0,2.828  c0.78,0.781,2.048,0.781,2.828,0L9,9.828V29.5C9,38.598,16.402,46,25.5,46S42,38.598,42,29.5z"></path></svg>