<?xml version="1.0" encoding="utf-8"?>
<!-- Generator: Adobe Illustrator 22.1.0, SVG Export Plug-In . SVG Version: 6.00 Build 0)  -->
<svg version="1.1" id="Layer_1" xmlns="http://www.w3.org/2000/svg" xmlns:xlink="http://www.w3.org/1999/xlink" x="0px" y="0px"
	 viewBox="0 0 24 24" style="enable-background:new 0 0 24 24;" xml:space="preserve">
<style type="text/css">
	.st0{fill:#ABD3EB;}
</style>
<title>rounded</title>
<path class="st0" d="M13,14.5h-2c-0.6,0-1-0.4-1-1H3V17c0,1.7,1.3,3,3,3h12c1.7,0,3-1.3,3-3v-3.5h-7C14,14.1,13.6,14.5,13,14.5z"/>
<path class="st0" d="M18,7h-3V6c0-1.1-0.9-2-2-2h-2C9.9,4,9,4.9,9,6v1H6c-1.7,0-3,1.3-3,3v2h7c0-0.6,0.4-1,1-1h2c0.6,0,1,0.4,1,1h7
	v-2C21,8.3,19.7,7,18,7z M14,7h-4V6c0-0.6,0.4-1,1-1h2c0.6,0,1,0.4,1,1V7z"/>
</svg>
